<svg version="1.2" xmlns="http://www.w3.org/2000/svg" viewBox="0 0 64 64" width="64" height="64">
	<title>_319f5402-6a73-47a1-b558-44bdba56f6a4_pixian-svg</title>
	<defs>
		<clipPath clipPathUnits="userSpaceOnUse" id="cp1">
			<path d="m-28.93-32.25h120.92v128.5h-120.92z"/>
		</clipPath>
	</defs>
	<style>
		.s0 { fill: none;stroke: #12b8fe;stroke-width: .2 } 
		.s1 { fill: none;stroke: #0767be;stroke-width: .2 } 
		.s2 { fill: none;stroke: #0c72bf;stroke-width: .2 } 
		.s3 { fill: none;stroke: #0ca8fd;stroke-width: .2 } 
		.s4 { fill: #16c3ff } 
		.s5 { fill: #0dadfc } 
		.s6 { fill: #0aa3fd } 
		.s7 { fill: #01207f } 
	</style>
	<g id="Clip-Path" clip-path="url(#cp1)">
		<g id="Layer">
			<path id="Layer" fill-rule="evenodd" class="s0" d="m28.3 6.3l-0.8 0.2q0 0-0.1 0.1c-0.1 0.1-0.7 0.6-0.7 0.6q0.1 0.1 0 0.1l-1 0.5q-0.1 0-0.1 0.1-0.1 0-0.2 0-0.1-0.1 0 0.1 0 0 0 0.1 0 0.1-0.1 0.1-0.5 0.1-1 0.2c-0.4 0.1-0.8 0.3-1.1 0.4q-0.1 0.1-0.1 0.1 0 0.1-0.1 0.1-0.5 0-0.7 0.5-0.1 0-0.1 0-2.1 0.3-4.1 0.7c-1 0.2-2 0.3-3 0.4-0.7 0.1-1.4 0.6-2.1 0.7q-0.3 0.1-0.3 0.2-0.1 0.1-0.1 0 0 0 0 0 0-0.1 0-0.1-0.5 0.2-0.9 0.5 0 0-0.1 0-0.2 0-0.3-0.2 0 0-0.1 0-0.1 0-0.1-0.1v-0.1q0.1-0.1 0 0-0.1 0-0.2-0.1"/>
			<path id="Layer" fill-rule="evenodd" class="s1" d="m29.2 10.6l-0.2 0.6"/>
			<path id="Layer" fill-rule="evenodd" class="s0" d="m29 11.2q-0.6 0.6-1.1 1.2-0.5 0.5-1 1-1.2 0.9-1.5 1.2-2.8 3-5.1 7.2"/>
			<path id="Layer" fill-rule="evenodd" class="s1" d="m20.3 21.8q-0.7 1.1-1.6 2c-2.8 2.7-6.3 4.1-9.1 6.7q-1.3 1.1-2 2.8"/>
			<path id="Layer" fill-rule="evenodd" class="s0" d="m7.6 33.3q-0.5 0.8-0.6 1.7-0.1 0.2-0.2 0.6-0.1 0.4 0 0.8"/>
			<path id="Layer" fill-rule="evenodd" class="s1" d="m6.8 36.4v0.6q0 0-0.1 0l-0.1 0.1"/>
			<path id="Layer" fill-rule="evenodd" class="s2" d="m6.8 36.4q0.3-1.6 0.8-3.1"/>
			<path id="Layer" fill-rule="evenodd" class="s2" d="m20.3 21.8q0.4-0.4 0.8-1.2 1.7-3 4.2-5.6 0.3-0.4 0.9-0.9 1.6-1.2 2.8-2.9"/>
			<path id="Layer" fill-rule="evenodd" class="s3" d="m54.1 4.7q-0.2 0-0.2-0.1 0-0.2-0.1-0.1v0.1q-0.1 0-0.1 0 0 0-0.1 0-0.5-0.1-1.1 0-0.1 0-0.1 0.1 0 0 0 0 0 0.1 0 0.1-0.6 0-1 0.3-0.1 0-0.1 0.1v0.1q0 0.1-0.1 0.1-1 0-1.9-0.1c-0.8-0.1-1.4-0.5-2.1-0.6-0.6-0.1-1.2 0-1.8 0q-1-0.1-1.9 0c-0.6 0-1 0.3-1.6 0.4-0.3 0-0.6 0.2-0.9 0.3-0.6 0-1.3 0.4-1.9 0.3q0 0 0 0v0.2q0 0.2-0.1 0 0-0.1 0-0.2 0-0.1-0.1-0.1c-0.7 0.1-1.4 0.2-2.1 0.1-0.7 0-1.3 0.2-1.8 0.3q-0.1 0-0.1 0.1 0 0-0.1 0-0.1 0-0.1-0.1-0.1-0.1-0.1-0.3"/>
			<path id="Layer" fill-rule="evenodd" class="s1" d="m56.1 25.9c0.1 1.7-0.4 3.5-1.6 4.8-1.3 1.3-2.8 2.1-4.6 3.3-2.6 1.6-5 3.6-6.8 6.3-0.9 1.3-1.6 2.6-2.3 3.3-1.3 1.4-2.6 2.7-3.7 4.1q-1.3 1.8-2.5 3.6c-0.3 0.5-0.4 1-0.4 1.6"/>
			<path id="Layer" fill-rule="evenodd" class="s0" d="m49.8 51.5q-0.1 0-0.1 0-0.1 0-0.1 0 0.1 0.1-0.1 0.3 0 0 0 0-0.1 0-0.1 0 0 0 0 0 0 0 0-0.1-0.1-0.1-0.1-0.1-0.5-0.1-0.7 0.2-0.1 0.1-0.1 0.1-0.8-0.1-1.5 0c-0.4 0.1-0.8 0-1.2 0.1-1 0.1-1.9 0.1-2.8 0.2q-0.1 0-0.1 0-0.2-0.2-0.5-0.2c-0.6 0-1.3-0.1-1.8-0.1q-0.6 0-1.2 0-0.1 0-0.1 0l-0.1 0.1q0 0-0.1 0-0.1 0.1-0.2-0.1 0 0 0 0c-1.2 0.3-2.5 0.3-3.6 0.9q-0.2 0-0.5 0-0.1 0-0.1 0-0.1 0.1-0.3 0 0 0 0 0.1-0.2 0.2-0.2 0.6"/>
			<path id="Layer" fill-rule="evenodd" class="s3" d="m27.9 60.1q0-0.1 0-0.2 0-0.1 0-0.1v-0.2q0-0.1 0-0.1-0.1-0.1-0.1 0-0.1 0-0.2 0l-1.5-0.7q0 0 0 0 0 0 0 0.1 0 0-0.1 0-0.8-0.4-1.7-0.5 0 0 0 0v0.3q0 0.1-0.1 0.1l-0.2-0.1q0 0 0-0.1 0-0.1-0.1-0.1l-0.5-0.1q-0.1 0-0.1 0.1h0.2q0.1 0.1 0 0.1-0.4 0-0.8-0.1c-0.3-0.1-0.6 0-0.9 0.1q-0.1 0-0.1-0.1 0-0.1-0.1-0.1 0 0 0 0c-1.1 0-2.2-0.2-3.3-0.2-0.2 0-0.5-0.2-0.7-0.2-1 0-2.1-0.2-3.1 0-0.7 0.1-1.1 0.1-1.6-0.3q0 0-0.1 0l-0.7-0.1q-0.1 0-0.1-0.1v-0.1q0 0 0-0.1-0.1 0-0.1-0.1 0-0.1 0-0.1c-0.5-0.1-1.1-0.3-1.6-0.3-0.5 0-1.3 0.1-1.5-0.5q0 0-0.1 0h-0.5q0 0-0.1-0.1l-0.1-0.1q-0.1 0-0.1 0-0.2 0.1-0.4 0 0 0 0 0-0.1 0-0.1 0 0 0.1 0 0.1 0 0 0 0.1 0.1 0.3-0.1 0.6"/>
		</g>
	</g>
	<path id="Layer" class="s4" d="m28.3 6.3l-0.8 0.2q0 0-0.1 0.1c-0.1 0.1-0.7 0.6-0.7 0.6q0.1 0.1 0 0.1l-1 0.5q-0.1 0-0.1 0.1-0.1 0-0.2 0-0.1-0.1 0 0.1 0 0 0 0.1 0 0.1-0.1 0.1-0.5 0.1-1 0.2c-0.4 0.1-0.8 0.3-1.1 0.4q-0.1 0.1-0.1 0.1 0 0.1-0.1 0.1-0.5 0-0.7 0.5-0.1 0-0.1 0-2.1 0.3-4.1 0.7c-1 0.2-2 0.3-3 0.4-0.7 0.1-1.4 0.6-2.1 0.7q-0.3 0.1-0.3 0.2-0.1 0.1-0.1 0 0 0 0 0 0-0.1 0-0.1-0.5 0.2-0.9 0.5 0 0-0.1 0-0.2 0-0.3-0.2 0 0-0.1 0-0.1 0-0.1-0.1v-0.1q0.1-0.1 0 0-0.1 0-0.2-0.1c-0.6-2.3-0.3-4.7 0.6-6.8 0.4-0.6 0.9-1.2 1.5-1.8q2.2-2.4 5.4-2.7c1.6-0.1 3.2 0 4.7 0.8q3.4 1.7 5.2 5.4z"/>
	<path id="Layer" class="s5" d="m54.1 4.7q-0.2 0-0.2-0.1 0-0.2-0.1-0.1v0.1q-0.1 0-0.1 0 0 0-0.1 0-0.5-0.1-1.1 0-0.1 0-0.1 0.1 0 0 0 0 0 0.1 0 0.1-0.6 0-1 0.3-0.1 0-0.1 0.1v0.1q0 0.1-0.1 0.1-1 0-1.9-0.1c-0.8-0.1-1.4-0.5-2.1-0.6-0.6-0.1-1.2 0-1.8 0q-1-0.1-1.9 0c-0.6 0-1 0.3-1.6 0.4-0.3 0-0.6 0.2-0.9 0.3-0.6 0-1.3 0.4-1.9 0.3q0 0 0 0v0.2q0 0.2-0.1 0 0-0.1 0-0.2 0-0.1-0.1-0.1c-0.7 0.1-1.4 0.2-2.1 0.1-0.7 0-1.3 0.2-1.8 0.3q-0.1 0-0.1 0.1 0 0-0.1 0-0.1 0-0.1-0.1-0.1-0.1-0.1-0.3c1.4-3.5 5.2-5.3 8.5-5.4q2.6-0.2 4.7 0.2c2.4 0.3 4.8 2.2 6.3 4.2z"/>
	<path id="Layer" class="s6" d="m54.1 4.7c2.2 2.8 1.8 6.5 1.7 9.9q0 1.5-0.2 2.1c-0.4 1.4-1.5 2.4-2.8 2.7q-0.5 0.2-1.4 0.2-6.5-0.1-13.1 0c-1.8 0-3.5-1.5-4-3.3q-0.2-0.7-0.2-2.3 0-2.7 0-5.4 0-1.5 0.5-2.9 0 0.2 0.1 0.3 0 0.1 0.1 0.1 0.1 0 0.1 0 0-0.1 0.1-0.1c0.5-0.1 1.1-0.3 1.8-0.3 0.7 0.1 1.4 0 2.1-0.1q0.1 0 0.1 0.1 0 0.1 0 0.2 0.1 0.2 0.1 0v-0.2q0 0 0 0c0.6 0.1 1.3-0.3 1.9-0.3 0.3-0.1 0.6-0.3 0.9-0.3 0.6-0.1 1-0.4 1.6-0.4q0.9-0.1 1.9 0c0.6 0 1.2-0.1 1.8 0 0.7 0.1 1.3 0.5 2.1 0.6q0.9 0.1 1.9 0.1 0.1 0 0.1-0.1v-0.1q0-0.1 0.1-0.1 0.4-0.3 1-0.3 0 0 0-0.1 0 0 0 0 0-0.1 0.1-0.1 0.6-0.1 1.1 0 0.1 0 0.1 0 0 0 0.1 0v-0.1q0.1-0.1 0.1 0.1 0 0.1 0.2 0.1z"/>
	<path id="Layer" class="s5" d="m28.3 6.3c0.7 1.3 0.9 2.8 0.9 4.3l-0.2 0.6q-0.6 0.6-1.1 1.2-0.5 0.5-1 1-1.2 0.9-1.5 1.2-2.8 3-5.1 7.2-0.7 1.1-1.6 2c-2.8 2.7-6.3 4.1-9.1 6.7q-1.3 1.1-2 2.8-0.5 0.8-0.6 1.7-0.1 0.2-0.2 0.6-0.1 0.4 0 0.8v0.6q0 0-0.1 0l-0.1 0.1c-1.5-0.2-3.2-1.3-4.3-2.3-1.5-1.2-2.3-3-2.2-5 0.2-3 2.2-5.6 4.7-6.8 1.3-0.6 2.9-1.2 3.9-1.9 1.3-0.8 3-2.5 3.3-4.1 0.5-2.1-0.5-3.8-1.1-5.6q0.1 0.1 0.2 0.1 0.1-0.1 0 0v0.1q0 0.1 0.1 0.1 0.1 0 0.1 0 0.1 0.2 0.3 0.2 0.1 0 0.1 0 0.4-0.3 0.9-0.5 0 0 0 0.1 0 0 0 0 0 0.1 0.1 0 0-0.1 0.3-0.2c0.7-0.1 1.4-0.6 2.1-0.7 1-0.1 2-0.2 3-0.4q2-0.4 4.1-0.7 0 0 0.1 0 0.2-0.5 0.7-0.5 0.1 0 0.1-0.1 0 0 0.1-0.1c0.3-0.1 0.7-0.3 1.1-0.4q0.5-0.1 1-0.2 0.1 0 0.1-0.1 0-0.1 0-0.1-0.1-0.2 0-0.1 0.1 0 0.2 0 0-0.1 0.1-0.1l1-0.5q0.1 0 0-0.1c0 0 0.6-0.5 0.7-0.6q0.1-0.1 0.1-0.1z"/>
	<path id="Layer" class="s7" d="m29.2 10.6q0.1 1.1 0.1 2.2c-0.1 2.6-0.1 5.3-0.1 8 0 2.4 0.1 4-0.5 6q-0.4 1.3-0.6 2c-0.1 0.1-0.2 0.2-0.2 0.3-2 4.3-6.2 7.7-10.7 8-2.9 0.3-6 0.2-9.5 0.1q-0.6 0-1.1-0.1l0.1-0.1q0.1 0 0.1 0v-0.6q0.3-1.6 0.8-3.1 0.7-1.7 2-2.8c2.8-2.6 6.3-4 9.1-6.7q0.9-0.9 1.6-2 0.4-0.4 0.8-1.2 1.7-3 4.2-5.6 0.3-0.4 0.9-0.9 1.6-1.2 2.8-2.9z"/>
	<path id="Layer" class="s4" d="m29 11.2q-1.2 1.7-2.8 2.9-0.6 0.5-0.9 0.9-2.5 2.6-4.2 5.6-0.4 0.8-0.8 1.2 2.3-4.2 5.1-7.2 0.3-0.3 1.5-1.2 0.5-0.5 1-1 0.5-0.6 1.1-1.2z"/>
	<path id="Layer" class="s7" d="m56.1 25.9c0.1 1.7-0.4 3.5-1.6 4.8-1.3 1.3-2.8 2.1-4.6 3.3-2.6 1.6-5 3.6-6.8 6.3-0.9 1.3-1.6 2.6-2.3 3.3-1.3 1.4-2.6 2.7-3.7 4.1q-1.3 1.8-2.5 3.6c-0.3 0.5-0.4 1-0.4 1.6q-0.1-0.5-0.1-1.3 0-5.8 0-11.7 0-1.6 0.1-2.5c0.6-4.7 3.6-8.7 7.7-10.6 1.6-0.8 3.4-1.1 5.1-1.1 3.1 0 6.1-0.1 9.1 0.2z"/>
	<path id="Layer" class="s5" d="m56.1 25.9q3.3 0.4 5.9 2.8c2.3 2.1 2.3 5.2 1.2 8-1 2.1-2.9 3.7-5 4.4q-1.6 0.6-3.3 1.5c-1.4 0.8-2.8 2.4-3.8 3.7-1.2 1.5-2.1 3.2-1.3 5.2q-0.1 0-0.1 0-0.1 0-0.1 0 0.1 0.1-0.1 0.3 0 0 0 0-0.1 0-0.1 0 0 0 0 0 0 0 0-0.1-0.1-0.1-0.1-0.1-0.5-0.1-0.7 0.2-0.1 0.1-0.1 0.1-0.8-0.1-1.5 0c-0.4 0.1-0.8 0-1.2 0.1-1 0.1-1.9 0.1-2.8 0.2q-0.1 0-0.1 0-0.2-0.2-0.5-0.2c-0.6 0-1.3-0.1-1.8-0.1q-0.6 0-1.2 0-0.1 0-0.1 0l-0.1 0.1q0 0-0.1 0-0.1 0.1-0.2-0.1 0 0 0 0c-1.2 0.3-2.5 0.3-3.6 0.9q-0.2 0-0.5 0-0.1 0-0.1 0-0.1 0.1-0.3 0 0 0 0 0.1-0.2 0.2-0.2 0.6v-0.6c0-0.6 0.1-1.1 0.4-1.6q1.2-1.8 2.5-3.6c1.1-1.4 2.4-2.7 3.7-4.1 0.7-0.7 1.4-2 2.3-3.3 1.8-2.7 4.2-4.7 6.8-6.3 1.8-1.2 3.3-2 4.6-3.3 1.2-1.3 1.7-3.1 1.6-4.8z"/>
	<path id="Layer" class="s4" d="m7.6 33.3q-0.5 1.5-0.8 3.1-0.1-0.4 0-0.8 0.1-0.4 0.2-0.6 0.1-0.9 0.6-1.7z"/>
	<path id="Layer" class="s6" d="m27.9 60.1q0-0.1 0-0.2 0-0.1 0-0.1v-0.2q0-0.1 0-0.1-0.1-0.1-0.1 0-0.1 0-0.2 0l-1.5-0.7q0 0 0 0 0 0 0 0.1 0 0-0.1 0-0.8-0.4-1.7-0.5 0 0 0 0v0.3q0 0.1-0.1 0.1l-0.2-0.1q0 0 0-0.1 0-0.1-0.1-0.1l-0.5-0.1q-0.1 0-0.1 0.1h0.2q0.1 0.1 0 0.1-0.4 0-0.8-0.1c-0.3-0.1-0.6 0-0.9 0.1q-0.1 0-0.1-0.1 0-0.1-0.1-0.1 0 0 0 0c-1.1 0-2.2-0.2-3.3-0.2-0.2 0-0.5-0.2-0.7-0.2-1 0-2.1-0.2-3.1 0-0.7 0.1-1.1 0.1-1.6-0.3q0 0-0.1 0l-0.7-0.1q-0.1 0-0.1-0.1v-0.1q0 0 0-0.1-0.1 0-0.1-0.1 0-0.1 0-0.1c-0.5-0.1-1.1-0.3-1.6-0.3-0.5 0-1.3 0.1-1.5-0.5q0 0-0.1 0h-0.5q0 0-0.1-0.1l-0.1-0.1q-0.1 0-0.1 0-0.2 0.1-0.4 0 0 0 0 0-0.1 0-0.1 0 0 0.1 0 0.1 0 0 0 0.1 0.1 0.3-0.1 0.6c-0.7-1.7-0.6-4-0.7-5.7-0.1-2.9 0.1-6 3.2-6.9q0.6-0.2 1.8-0.2 6.2-0.1 12.5 0 1.2 0 1.9 0.2c1.8 0.5 3.1 2 3.2 4.1q0 3.9-0.1 7.8c0 1.6-0.3 2.8-1.2 3.9z"/>
	<path id="Layer" class="s4" d="m49.8 51.5q0.3 0.7 0.7 1 1.5 1.4 1.4 3.7c-0.1 3.4-1.9 5.6-4.7 6.9-4 2-8.5 0.4-11.1-3.2-1.2-1.7-2-4.4-1.9-6.4q0-0.4 0.2-0.6 0-0.1 0-0.1 0.2 0.1 0.3 0 0 0 0.1 0 0.3 0 0.5 0c1.1-0.6 2.4-0.6 3.6-0.9q0 0 0 0 0.1 0.2 0.2 0.1 0.1 0 0.1 0l0.1-0.1q0 0 0.1 0 0.6 0 1.2 0c0.5 0 1.2 0.1 1.8 0.1q0.3 0 0.5 0.2 0 0 0.1 0c0.9-0.1 1.8-0.1 2.8-0.2 0.4-0.1 0.8 0 1.2-0.1q0.7-0.1 1.5 0 0 0 0.1-0.1 0.2-0.3 0.7-0.2 0 0 0.1 0.1 0 0.1 0 0.1 0 0 0 0 0 0 0.1 0 0 0 0 0 0.2-0.2 0.1-0.3 0 0 0.1 0 0 0 0.1 0z"/>
	<path id="Layer" class="s5" d="m27.9 60.1c-2.1 2.5-4.7 3.4-7.8 3.6-1.9 0.2-4.4 0.1-6.6-0.6-2.7-0.9-5.1-3.4-6.2-6.2q0.2-0.3 0.1-0.6 0-0.1 0-0.1 0 0 0-0.1 0 0 0.1 0 0 0 0 0 0.2 0.1 0.4 0 0 0 0.1 0l0.1 0.1q0.1 0.1 0.1 0.1h0.5q0.1 0 0.1 0c0.2 0.6 1 0.5 1.5 0.5 0.5 0 1.1 0.2 1.6 0.3q0 0 0 0.1 0 0.1 0.1 0.1 0 0.1 0 0.1v0.1q0 0.1 0.1 0.1l0.7 0.1q0.1 0 0.1 0c0.5 0.4 0.9 0.4 1.6 0.3 1-0.2 2.1 0 3.1 0 0.2 0 0.5 0.2 0.7 0.2 1.1 0 2.2 0.2 3.3 0.2q0 0 0 0 0.1 0 0.1 0.1 0 0.1 0.1 0.1c0.3-0.1 0.6-0.2 0.9-0.1q0.4 0.1 0.8 0.1 0.1 0 0-0.1h-0.2q0-0.1 0.1-0.1l0.5 0.1q0.1 0 0.1 0.1 0 0.1 0 0.1l0.2 0.1q0.1 0 0.1-0.1v-0.3q0 0 0 0 0.9 0.1 1.7 0.5 0.1 0 0.1 0 0-0.1 0-0.1 0 0 0 0l1.5 0.7q0.1 0 0.2 0 0-0.1 0.1 0 0 0 0 0.1v0.2q0 0 0 0.1 0 0.1 0 0.2z"/>
</svg>