<?xml version="1.0" encoding="UTF-8" standalone="no"?>
<!DOCTYPE svg PUBLIC "-//W3C//DTD SVG 1.1//EN" "http://www.w3.org/Graphics/SVG/1.1/DTD/svg11.dtd">
<svg xmlns="http://www.w3.org/2000/svg" version="1.1" viewBox="0.00 0.00 1024.00 1024.00">
    <clipPath id="clipping-path-0">
        <path d="
  M 0.00 0.00
  L 1024.00 0.00
  L 1024.00 1024.00
  L 0.00 1024.00
  L 0.00 0.00
  Z"/>
    </clipPath>
    <g stroke-width="2.00" fill="none" stroke-linecap="butt" clip-path="url(#clipping-path-0)">
        <path stroke="#12b8fe" vector-effect="non-scaling-stroke" d="
  M 485.03 306.99
  L 478.13 308.67
  Q 477.61 308.80 477.27 309.21
  C 476.58 310.06 471.49 314.15 471.51 314.52
  Q 471.54 315.06 471.05 315.28
  L 462.59 319.21
  Q 462.20 319.39 461.90 319.67
  Q 461.23 320.28 460.24 319.97
  Q 458.92 319.55 459.81 320.44
  L 460.07 320.70
  Q 460.29 320.91 460.16 321.19
  L 459.91 321.70
  Q 459.78 321.98 459.48 322.03
  Q 454.94 322.86 450.48 323.99
  C 447.43 324.76 444.39 326.55 441.10 327.47
  Q 440.75 327.57 440.75 327.93
  L 440.75 328.26
  Q 440.75 328.90 440.11 328.87
  Q 435.80 328.70 433.64 332.35
  Q 433.34 332.86 432.76 332.94
  Q 415.42 335.36 398.20 338.40
  C 390.21 339.81 381.59 340.33 373.28 341.53
  C 366.91 342.45 360.68 346.07 354.75 347.27
  Q 352.69 347.69 352.17 348.96
  Q 352.00 349.37 352.00 348.93
  Q 351.99 348.80 352.00 348.65
  Q 352.03 347.96 351.37 348.16
  Q 347.62 349.30 344.48 351.68
  Q 344.06 352.00 343.52 352.00
  Q 341.79 352.00 340.71 350.61
  Q 340.43 350.25 339.97 350.25
  L 339.44 350.25
  Q 338.87 350.25 339.05 349.70
  L 339.33 348.82
  Q 339.59 348.04 338.85 348.40
  Q 337.85 348.90 337.04 347.75"
        />
        <path stroke="#0767be" vector-effect="non-scaling-stroke" d="
  M 492.21 341.25
  L 490.18 346.20"
        />
        <path stroke="#12b8fe" vector-effect="non-scaling-stroke" d="
  M 490.18 346.20
  Q 485.52 350.73 481.09 355.44
  Q 476.82 359.98 472.42 363.50
  Q 462.95 371.06 460.23 373.72
  Q 436.18 397.24 416.73 430.57"
        />
        <path stroke="#0767be" vector-effect="non-scaling-stroke" d="
  M 416.73 430.57
  Q 411.31 439.56 403.46 446.72
  C 380.07 468.08 350.34 479.60 326.06 499.81
  Q 315.04 508.98 309.54 522.75"
        />
        <path stroke="#12b8fe" vector-effect="non-scaling-stroke" d="
  M 309.54 522.75
  Q 305.30 528.79 304.02 536.10
  Q 303.83 537.15 302.74 540.92
  Q 301.84 544.05 302.70 547.28"
        />
        <path stroke="#0767be" vector-effect="non-scaling-stroke" d="
  M 302.70 547.28
  L 302.50 551.71
  Q 302.48 552.22 301.98 552.24
  L 301.00 552.29"
        />
        <path stroke="#0c72bf" vector-effect="non-scaling-stroke" d="
  M 302.70 547.28
  Q 304.74 534.54 309.54 522.75"
        />
        <path stroke="#0c72bf" vector-effect="non-scaling-stroke" d="
  M 416.73 430.57
  Q 420.11 427.14 423.94 420.94
  Q 438.51 397.40 459.30 376.20
  Q 462.19 373.26 467.29 369.46
  Q 480.47 359.65 490.18 346.20"
        />
        <path stroke="#0ca8fd" vector-effect="non-scaling-stroke" d="
  M 702.75 294.46
  Q 701.61 294.69 701.41 293.37
  Q 701.26 292.38 700.71 293.22
  L 700.38 293.72
  Q 700.17 294.04 699.89 293.77
  L 699.72 293.59
  Q 699.49 293.37 699.18 293.35
  Q 694.27 292.99 689.48 293.87
  Q 689.00 293.95 689.00 294.44
  Q 689.01 294.62 689.00 294.77
  Q 688.97 295.28 688.46 295.30
  Q 684.06 295.51 680.16 297.68
  Q 679.75 297.91 679.66 298.37
  L 679.42 299.61
  Q 679.32 300.10 678.82 300.10
  Q 670.43 300.10 662.11 299.09
  C 655.93 298.33 650.38 295.08 644.32 294.48
  C 639.43 294.00 634.29 294.66 629.82 294.43
  Q 621.41 294.01 612.98 294.41
  C 608.62 294.62 604.56 296.47 600.16 297.40
  C 597.42 297.98 594.96 299.57 591.91 299.88
  C 586.86 300.39 581.60 303.25 576.47 302.15
  Q 576.00 302.05 576.00 302.53
  L 576.00 304.07
  Q 576.00 305.52 575.41 304.19
  Q 575.02 303.33 575.10 302.53
  Q 575.16 301.89 574.52 301.92
  C 568.44 302.18 562.69 302.99 556.42 302.75
  C 550.92 302.53 545.65 304.34 541.29 304.94
  Q 540.86 305.00 540.56 305.31
  Q 540.27 305.62 539.73 305.56
  Q 539.26 305.52 538.98 305.14
  Q 538.15 304.03 538.29 302.50"
        />
        <path stroke="#0767be" vector-effect="non-scaling-stroke" d="
  M 720.33 463.12
  C 720.64 477.12 716.80 491.47 706.39 501.37
  C 695.20 512.02 682.91 518.58 667.66 527.71
  C 645.44 541.01 624.91 556.46 610.11 577.99
  C 602.66 588.83 596.11 598.77 590.35 604.60
  C 579.78 615.29 568.45 626.05 559.25 637.34
  Q 548.04 651.09 538.12 665.81
  C 535.33 669.95 534.58 673.50 534.46 678.25"
        />
        <path stroke="#12b8fe" vector-effect="non-scaling-stroke" d="
  M 666.71 667.25
  Q 666.16 667.51 665.59 667.40
  Q 665.34 667.35 665.41 667.60
  Q 665.61 668.37 664.17 669.54
  A 0.69 0.69 0.0 0 1 663.08 669.23
  L 662.98 668.93
  Q 662.82 668.45 662.31 668.37
  Q 658.64 667.75 656.26 670.05
  Q 655.89 670.41 655.38 670.37
  Q 649.16 669.87 643.04 670.77
  C 639.65 671.26 636.21 670.95 632.78 671.37
  C 624.79 672.34 617.00 671.92 608.98 673.15
  Q 608.50 673.22 608.18 672.86
  C 607.21 671.77 606.06 671.04 604.49 671.07
  C 599.14 671.17 593.41 670.42 588.58 670.38
  Q 583.50 670.34 578.43 670.19
  Q 578.12 670.18 577.93 670.42
  L 577.25 671.25
  Q 576.96 671.61 576.50 671.69
  Q 575.40 671.89 574.76 670.76
  Q 574.51 670.33 574.03 670.45
  C 564.28 672.80 553.32 672.87 543.73 677.46
  Q 542.53 678.03 539.41 677.61
  Q 538.86 677.53 538.48 677.94
  Q 537.64 678.84 536.58 678.03
  Q 536.16 677.71 535.93 678.19
  Q 534.82 680.49 534.96 683.00"
        />
        <path stroke="#0ca8fd" vector-effect="non-scaling-stroke" d="
  M 481.29 736.25
  Q 480.88 734.94 481.43 734.08
  Q 481.66 733.72 481.60 733.29
  L 481.41 731.88
  Q 481.34 731.38 480.99 731.02
  Q 480.54 730.55 480.14 730.86
  Q 479.66 731.25 479.08 731.01
  L 466.12 725.58
  Q 465.94 725.50 465.86 725.68
  Q 465.79 725.85 465.76 726.01
  Q 465.73 726.20 465.55 726.13
  Q 458.50 723.35 451.00 722.07
  Q 450.62 722.01 450.63 722.39
  L 450.67 724.78
  Q 450.68 725.45 450.02 725.32
  L 448.57 725.03
  Q 448.00 724.91 448.00 724.33
  L 448.00 723.58
  Q 448.00 723.14 447.57 723.09
  L 442.77 722.50
  Q 441.90 722.39 442.67 722.81
  L 443.93 723.50
  Q 444.78 723.97 443.81 723.89
  Q 440.52 723.63 437.26 723.02
  C 434.28 722.47 432.17 723.47 429.32 724.03
  Q 428.49 724.19 428.71 723.38
  Q 428.87 722.77 428.21 722.23
  Q 427.91 721.99 427.53 722.00
  C 418.44 722.12 409.26 720.85 400.12 720.58
  C 397.90 720.51 396.11 719.54 393.70 719.50
  C 385.20 719.36 376.37 717.76 367.93 719.01
  C 362.05 719.88 358.85 719.78 354.24 716.80
  Q 353.85 716.55 353.39 716.49
  L 347.14 715.73
  Q 346.78 715.68 346.73 715.32
  L 346.61 714.47
  Q 346.56 714.09 346.28 713.82
  Q 345.76 713.35 345.92 712.71
  Q 346.05 712.20 345.54 712.06
  C 341.25 710.86 336.46 709.86 331.98 709.67
  C 327.92 709.49 321.26 710.67 319.39 705.94
  Q 319.19 705.45 318.66 705.46
  L 314.67 705.59
  Q 314.10 705.61 313.66 705.24
  L 312.69 704.44
  Q 312.26 704.08 311.71 704.21
  Q 310.34 704.55 308.90 704.04
  A 1.13 1.13 0.0 0 0 307.48 705.51
  Q 308.58 708.35 307.06 710.77"
        />
    </g>
    <path fill="#16c3ff" d="
  M 485.03 306.99
  L 478.13 308.67
  Q 477.61 308.80 477.27 309.21
  C 476.58 310.06 471.49 314.15 471.51 314.52
  Q 471.54 315.06 471.05 315.28
  L 462.59 319.21
  Q 462.20 319.39 461.90 319.67
  Q 461.23 320.28 460.24 319.97
  Q 458.92 319.55 459.81 320.44
  L 460.07 320.70
  Q 460.29 320.91 460.16 321.19
  L 459.91 321.70
  Q 459.78 321.98 459.48 322.03
  Q 454.94 322.86 450.48 323.99
  C 447.43 324.76 444.39 326.55 441.10 327.47
  Q 440.75 327.57 440.75 327.93
  L 440.75 328.26
  Q 440.75 328.90 440.11 328.87
  Q 435.80 328.70 433.64 332.35
  Q 433.34 332.86 432.76 332.94
  Q 415.42 335.36 398.20 338.40
  C 390.21 339.81 381.59 340.33 373.28 341.53
  C 366.91 342.45 360.68 346.07 354.75 347.27
  Q 352.69 347.69 352.17 348.96
  Q 352.00 349.37 352.00 348.93
  Q 351.99 348.80 352.00 348.65
  Q 352.03 347.96 351.37 348.16
  Q 347.62 349.30 344.48 351.68
  Q 344.06 352.00 343.52 352.00
  Q 341.79 352.00 340.71 350.61
  Q 340.43 350.25 339.97 350.25
  L 339.44 350.25
  Q 338.87 350.25 339.05 349.70
  L 339.33 348.82
  Q 339.59 348.04 338.85 348.40
  Q 337.85 348.90 337.04 347.75
  C 331.81 329.40 334.50 310.18 342.80 294.02
  C 345.53 288.72 350.10 283.94 354.72 279.27
  Q 373.86 259.91 400.77 257.94
  C 414.55 256.93 427.95 258.18 440.31 263.97
  Q 469.78 277.76 485.03 306.99
  Z"
    />
    <path fill="#0dadfc" d="
  M 702.75 294.46
  Q 701.61 294.69 701.41 293.37
  Q 701.26 292.38 700.71 293.22
  L 700.38 293.72
  Q 700.17 294.04 699.89 293.77
  L 699.72 293.59
  Q 699.49 293.37 699.18 293.35
  Q 694.27 292.99 689.48 293.87
  Q 689.00 293.95 689.00 294.44
  Q 689.01 294.62 689.00 294.77
  Q 688.97 295.28 688.46 295.30
  Q 684.06 295.51 680.16 297.68
  Q 679.75 297.91 679.66 298.37
  L 679.42 299.61
  Q 679.32 300.10 678.82 300.10
  Q 670.43 300.10 662.11 299.09
  C 655.93 298.33 650.38 295.08 644.32 294.48
  C 639.43 294.00 634.29 294.66 629.82 294.43
  Q 621.41 294.01 612.98 294.41
  C 608.62 294.62 604.56 296.47 600.16 297.40
  C 597.42 297.98 594.96 299.57 591.91 299.88
  C 586.86 300.39 581.60 303.25 576.47 302.15
  Q 576.00 302.05 576.00 302.53
  L 576.00 304.07
  Q 576.00 305.52 575.41 304.19
  Q 575.02 303.33 575.10 302.53
  Q 575.16 301.89 574.52 301.92
  C 568.44 302.18 562.69 302.99 556.42 302.75
  C 550.92 302.53 545.65 304.34 541.29 304.94
  Q 540.86 305.00 540.56 305.31
  Q 540.27 305.62 539.73 305.56
  Q 539.26 305.52 538.98 305.14
  Q 538.15 304.03 538.29 302.50
  C 549.92 274.70 581.73 260.56 610.19 259.17
  Q 631.69 258.12 649.49 260.74
  C 669.85 263.74 690.36 278.66 702.75 294.46
  Z"
    />
    <path fill="#0aa3fd" d="
  M 702.75 294.46
  C 721.75 316.95 718.31 345.89 717.88 373.10
  Q 717.69 385.16 716.12 390.19
  C 712.73 401.07 703.39 408.87 692.46 411.86
  Q 687.95 413.10 680.42 413.05
  Q 625.08 412.67 569.75 413.07
  C 554.24 413.18 539.91 401.53 535.66 386.62
  Q 534.09 381.12 534.03 368.37
  Q 533.95 346.81 534.01 325.25
  Q 534.04 313.47 538.29 302.50
  Q 538.15 304.03 538.98 305.14
  Q 539.26 305.52 539.73 305.56
  Q 540.27 305.62 540.56 305.31
  Q 540.86 305.00 541.29 304.94
  C 545.65 304.34 550.92 302.53 556.42 302.75
  C 562.69 302.99 568.44 302.18 574.52 301.92
  Q 575.16 301.89 575.10 302.53
  Q 575.02 303.33 575.41 304.19
  Q 576.00 305.52 576.00 304.07
  L 576.00 302.53
  Q 576.00 302.05 576.47 302.15
  C 581.60 303.25 586.86 300.39 591.91 299.88
  C 594.96 299.57 597.42 297.98 600.16 297.40
  C 604.56 296.47 608.62 294.62 612.98 294.41
  Q 621.41 294.01 629.82 294.43
  C 634.29 294.66 639.43 294.00 644.32 294.48
  C 650.38 295.08 655.93 298.33 662.11 299.09
  Q 670.43 300.10 678.82 300.10
  Q 679.32 300.10 679.42 299.61
  L 679.66 298.37
  Q 679.75 297.91 680.16 297.68
  Q 684.06 295.51 688.46 295.30
  Q 688.97 295.28 689.00 294.77
  Q 689.01 294.62 689.00 294.44
  Q 689.00 293.95 689.48 293.87
  Q 694.27 292.99 699.18 293.35
  Q 699.49 293.37 699.72 293.59
  L 699.89 293.77
  Q 700.17 294.04 700.38 293.72
  L 700.71 293.22
  Q 701.26 292.38 701.41 293.37
  Q 701.61 294.69 702.75 294.46
  Z"
    />
    <path fill="#0dadfc" d="
  M 485.03 306.99
  C 490.67 317.27 492.49 329.64 492.21 341.25
  L 490.18 346.20
  Q 485.52 350.73 481.09 355.44
  Q 476.82 359.98 472.42 363.50
  Q 462.95 371.06 460.23 373.72
  Q 436.18 397.24 416.73 430.57
  Q 411.31 439.56 403.46 446.72
  C 380.07 468.08 350.34 479.60 326.06 499.81
  Q 315.04 508.98 309.54 522.75
  Q 305.30 528.79 304.02 536.10
  Q 303.83 537.15 302.74 540.92
  Q 301.84 544.05 302.70 547.28
  L 302.50 551.71
  Q 302.48 552.22 301.98 552.24
  L 301.00 552.29
  C 288.22 550.73 274.15 542.50 264.22 534.53
  C 251.85 524.60 244.90 510.43 245.91 494.43
  C 247.43 470.38 264.40 450.01 285.93 440.43
  C 296.89 435.55 310.12 430.54 318.94 425.12
  C 329.90 418.39 344.13 405.38 346.97 392.23
  C 350.58 375.49 342.25 362.48 337.04 347.75
  Q 337.85 348.90 338.85 348.40
  Q 339.59 348.04 339.33 348.82
  L 339.05 349.70
  Q 338.87 350.25 339.44 350.25
  L 339.97 350.25
  Q 340.43 350.25 340.71 350.61
  Q 341.79 352.00 343.52 352.00
  Q 344.06 352.00 344.48 351.68
  Q 347.62 349.30 351.37 348.16
  Q 352.03 347.96 352.00 348.65
  Q 351.99 348.80 352.00 348.93
  Q 352.00 349.37 352.17 348.96
  Q 352.69 347.69 354.75 347.27
  C 360.68 346.07 366.91 342.45 373.28 341.53
  C 381.59 340.33 390.21 339.81 398.20 338.40
  Q 415.42 335.36 432.76 332.94
  Q 433.34 332.86 433.64 332.35
  Q 435.80 328.70 440.11 328.87
  Q 440.75 328.90 440.75 328.26
  L 440.75 327.93
  Q 440.75 327.57 441.10 327.47
  C 444.39 326.55 447.43 324.76 450.48 323.99
  Q 454.94 322.86 459.48 322.03
  Q 459.78 321.98 459.91 321.70
  L 460.16 321.19
  Q 460.29 320.91 460.07 320.70
  L 459.81 320.44
  Q 458.92 319.55 460.24 319.97
  Q 461.23 320.28 461.90 319.67
  Q 462.20 319.39 462.59 319.21
  L 471.05 315.28
  Q 471.54 315.06 471.51 314.52
  C 471.49 314.15 476.58 310.06 477.27 309.21
  Q 477.61 308.80 478.13 308.67
  L 485.03 306.99
  Z"
    />
    <path fill="#01207f" d="
  M 492.21 341.25
  Q 493.21 349.93 492.84 358.63
  C 491.93 380.09 492.23 401.52 492.42 423.00
  C 492.58 442.18 492.80 454.38 488.01 470.25
  Q 484.85 480.72 482.75 486.14
  C 482.32 487.23 481.51 487.93 480.99 489.01
  C 464.58 523.44 429.15 550.32 391.01 552.94
  C 365.81 554.67 339.97 553.89 310.50 553.37
  Q 304.81 553.27 301.00 552.29
  L 301.98 552.24
  Q 302.48 552.22 302.50 551.71
  L 302.70 547.28
  Q 304.74 534.54 309.54 522.75
  Q 315.04 508.98 326.06 499.81
  C 350.34 479.60 380.07 468.08 403.46 446.72
  Q 411.31 439.56 416.73 430.57
  Q 420.11 427.14 423.94 420.94
  Q 438.51 397.40 459.30 376.20
  Q 462.19 373.26 467.29 369.46
  Q 480.47 359.65 490.18 346.20
  L 492.21 341.25
  Z"
    />
    <path fill="#16c3ff" d="
  M 490.18 346.20
  Q 480.47 359.65 467.29 369.46
  Q 462.19 373.26 459.30 376.20
  Q 438.51 397.40 423.94 420.94
  Q 420.11 427.14 416.73 430.57
  Q 436.18 397.24 460.23 373.72
  Q 462.95 371.06 472.42 363.50
  Q 476.82 359.98 481.09 355.44
  Q 485.52 350.73 490.18 346.20
  Z"
    />
    <path fill="#01207f" d="
  M 720.33 463.12
  C 720.64 477.12 716.80 491.47 706.39 501.37
  C 695.20 512.02 682.91 518.58 667.66 527.71
  C 645.44 541.01 624.91 556.46 610.11 577.99
  C 602.66 588.83 596.11 598.77 590.35 604.60
  C 579.78 615.29 568.45 626.05 559.25 637.34
  Q 548.04 651.09 538.12 665.81
  C 535.33 669.95 534.58 673.50 534.46 678.25
  Q 534.05 674.83 534.04 668.44
  Q 533.95 621.84 534.02 575.25
  Q 534.04 562.13 534.93 555.30
  C 539.78 517.68 565.26 485.97 599.51 470.58
  C 613.07 464.49 628.57 462.01 643.45 462.01
  C 669.03 461.99 694.81 461.25 720.33 463.12
  Z"
    />
    <path fill="#0dadfc" d="
  M 720.33 463.12
  Q 747.64 466.87 769.81 485.71
  C 789.24 502.23 789.60 527.24 779.81 549.09
  C 771.99 566.55 756.00 578.67 738.01 584.78
  Q 724.18 589.47 710.25 596.45
  C 697.96 602.61 686.23 615.25 677.62 625.78
  C 667.64 637.97 660.33 651.74 666.71 667.25
  Q 666.16 667.51 665.59 667.40
  Q 665.34 667.35 665.41 667.60
  Q 665.61 668.37 664.17 669.54
  A 0.69 0.69 0.0 0 1 663.08 669.23
  L 662.98 668.93
  Q 662.82 668.45 662.31 668.37
  Q 658.64 667.75 656.26 670.05
  Q 655.89 670.41 655.38 670.37
  Q 649.16 669.87 643.04 670.77
  C 639.65 671.26 636.21 670.95 632.78 671.37
  C 624.79 672.34 617.00 671.92 608.98 673.15
  Q 608.50 673.22 608.18 672.86
  C 607.21 671.77 606.06 671.04 604.49 671.07
  C 599.14 671.17 593.41 670.42 588.58 670.38
  Q 583.50 670.34 578.43 670.19
  Q 578.12 670.18 577.93 670.42
  L 577.25 671.25
  Q 576.96 671.61 576.50 671.69
  Q 575.40 671.89 574.76 670.76
  Q 574.51 670.33 574.03 670.45
  C 564.28 672.80 553.32 672.87 543.73 677.46
  Q 542.53 678.03 539.41 677.61
  Q 538.86 677.53 538.48 677.94
  Q 537.64 678.84 536.58 678.03
  Q 536.16 677.71 535.93 678.19
  Q 534.82 680.49 534.96 683.00
  L 534.46 678.25
  C 534.58 673.50 535.33 669.95 538.12 665.81
  Q 548.04 651.09 559.25 637.34
  C 568.45 626.05 579.78 615.29 590.35 604.60
  C 596.11 598.77 602.66 588.83 610.11 577.99
  C 624.91 556.46 645.44 541.01 667.66 527.71
  C 682.91 518.58 695.20 512.02 706.39 501.37
  C 716.80 491.47 720.64 477.12 720.33 463.12
  Z"
    />
    <path fill="#16c3ff" d="
  M 309.54 522.75
  Q 304.74 534.54 302.70 547.28
  Q 301.84 544.05 302.74 540.92
  Q 303.83 537.15 304.02 536.10
  Q 305.30 528.79 309.54 522.75
  Z"
    />
    <path fill="#0aa3fd" d="
  M 481.29 736.25
  Q 480.88 734.94 481.43 734.08
  Q 481.66 733.72 481.60 733.29
  L 481.41 731.88
  Q 481.34 731.38 480.99 731.02
  Q 480.54 730.55 480.14 730.86
  Q 479.66 731.25 479.08 731.01
  L 466.12 725.58
  Q 465.94 725.50 465.86 725.68
  Q 465.79 725.85 465.76 726.01
  Q 465.73 726.20 465.55 726.13
  Q 458.50 723.35 451.00 722.07
  Q 450.62 722.01 450.63 722.39
  L 450.67 724.78
  Q 450.68 725.45 450.02 725.32
  L 448.57 725.03
  Q 448.00 724.91 448.00 724.33
  L 448.00 723.58
  Q 448.00 723.14 447.57 723.09
  L 442.77 722.50
  Q 441.90 722.39 442.67 722.81
  L 443.93 723.50
  Q 444.78 723.97 443.81 723.89
  Q 440.52 723.63 437.26 723.02
  C 434.28 722.47 432.17 723.47 429.32 724.03
  Q 428.49 724.19 428.71 723.38
  Q 428.87 722.77 428.21 722.23
  Q 427.91 721.99 427.53 722.00
  C 418.44 722.12 409.26 720.85 400.12 720.58
  C 397.90 720.51 396.11 719.54 393.70 719.50
  C 385.20 719.36 376.37 717.76 367.93 719.01
  C 362.05 719.88 358.85 719.78 354.24 716.80
  Q 353.85 716.55 353.39 716.49
  L 347.14 715.73
  Q 346.78 715.68 346.73 715.32
  L 346.61 714.47
  Q 346.56 714.09 346.28 713.82
  Q 345.76 713.35 345.92 712.71
  Q 346.05 712.20 345.54 712.06
  C 341.25 710.86 336.46 709.86 331.98 709.67
  C 327.92 709.49 321.26 710.67 319.39 705.94
  Q 319.19 705.45 318.66 705.46
  L 314.67 705.59
  Q 314.10 705.61 313.66 705.24
  L 312.69 704.44
  Q 312.26 704.08 311.71 704.21
  Q 310.34 704.55 308.90 704.04
  A 1.13 1.13 0.0 0 0 307.48 705.51
  Q 308.58 708.35 307.06 710.77
  C 300.98 696.70 301.48 678.93 300.99 664.81
  C 300.18 641.62 301.93 616.79 328.07 609.62
  Q 333.26 608.20 343.09 608.13
  Q 396.04 607.77 449.02 608.18
  Q 459.67 608.26 464.82 609.72
  C 480.17 614.07 491.79 625.73 491.91 642.49
  Q 492.14 673.77 491.86 705.02
  C 491.75 717.53 488.93 726.87 481.29 736.25
  Z"
    />
    <path fill="#16c3ff" d="
  M 666.71 667.25
  Q 669.59 672.72 672.44 675.09
  Q 685.77 686.19 684.94 704.50
  C 683.72 731.61 668.49 749.24 644.91 760.09
  C 610.66 775.86 572.83 763.24 550.72 734.04
  C 540.97 721.16 534.15 698.97 534.96 683.00
  Q 534.82 680.49 535.93 678.19
  Q 536.16 677.71 536.58 678.03
  Q 537.64 678.84 538.48 677.94
  Q 538.86 677.53 539.41 677.61
  Q 542.53 678.03 543.73 677.46
  C 553.32 672.87 564.28 672.80 574.03 670.45
  Q 574.51 670.33 574.76 670.76
  Q 575.40 671.89 576.50 671.69
  Q 576.96 671.61 577.25 671.25
  L 577.93 670.42
  Q 578.12 670.18 578.43 670.19
  Q 583.50 670.34 588.58 670.38
  C 593.41 670.42 599.14 671.17 604.49 671.07
  C 606.06 671.04 607.21 671.77 608.18 672.86
  Q 608.50 673.22 608.98 673.15
  C 617.00 671.92 624.79 672.34 632.78 671.37
  C 636.21 670.95 639.65 671.26 643.04 670.77
  Q 649.16 669.87 655.38 670.37
  Q 655.89 670.41 656.26 670.05
  Q 658.64 667.75 662.31 668.37
  Q 662.82 668.45 662.98 668.93
  L 663.08 669.23
  A 0.69 0.69 0.0 0 0 664.17 669.54
  Q 665.61 668.37 665.41 667.60
  Q 665.34 667.35 665.59 667.40
  Q 666.16 667.51 666.71 667.25
  Z"
    />
    <path fill="#0dadfc" d="
  M 481.29 736.25
  C 463.68 755.89 441.11 763.31 415.31 764.88
  C 399.18 765.86 377.62 765.56 359.26 759.73
  C 336.84 752.62 316.46 732.83 307.06 710.77
  Q 308.58 708.35 307.48 705.51
  A 1.13 1.13 0.0 0 1 308.90 704.04
  Q 310.34 704.55 311.71 704.21
  Q 312.26 704.08 312.69 704.44
  L 313.66 705.24
  Q 314.10 705.61 314.67 705.59
  L 318.66 705.46
  Q 319.19 705.45 319.39 705.94
  C 321.26 710.67 327.92 709.49 331.98 709.67
  C 336.46 709.86 341.25 710.86 345.54 712.06
  Q 346.05 712.20 345.92 712.71
  Q 345.76 713.35 346.28 713.82
  Q 346.56 714.09 346.61 714.47
  L 346.73 715.32
  Q 346.78 715.68 347.14 715.73
  L 353.39 716.49
  Q 353.85 716.55 354.24 716.80
  C 358.85 719.78 362.05 719.88 367.93 719.01
  C 376.37 717.76 385.20 719.36 393.70 719.50
  C 396.11 719.54 397.90 720.51 400.12 720.58
  C 409.26 720.85 418.44 722.12 427.53 722.00
  Q 427.91 721.99 428.21 722.23
  Q 428.87 722.77 428.71 723.38
  Q 428.49 724.19 429.32 724.03
  C 432.17 723.47 434.28 722.47 437.26 723.02
  Q 440.52 723.63 443.81 723.89
  Q 444.78 723.97 443.93 723.50
  L 442.67 722.81
  Q 441.90 722.39 442.77 722.50
  L 447.57 723.09
  Q 448.00 723.14 448.00 723.58
  L 448.00 724.33
  Q 448.00 724.91 448.57 725.03
  L 450.02 725.32
  Q 450.68 725.45 450.67 724.78
  L 450.63 722.39
  Q 450.62 722.01 451.00 722.07
  Q 458.50 723.35 465.55 726.13
  Q 465.73 726.20 465.76 726.01
  Q 465.79 725.85 465.86 725.68
  Q 465.94 725.50 466.12 725.58
  L 479.08 731.01
  Q 479.66 731.25 480.14 730.86
  Q 480.54 730.55 480.99 731.02
  Q 481.34 731.38 481.41 731.88
  L 481.60 733.29
  Q 481.66 733.72 481.43 734.08
  Q 480.88 734.94 481.29 736.25
  Z"
    />
</svg>
