<svg id="Layer_1" data-name="Layer 1" xmlns="http://www.w3.org/2000/svg" viewBox="0 0 1091.824 905.254">
  <g>
    <g>
      <g>
        <rect x="291.289" y="0.824" width="489.557" height="369.139" rx="19.99" transform="translate(1072.134 370.787) rotate(-180)" fill="#fff"></rect>
        <path d="M760.855,370.787H311.279a20.837,20.837,0,0,1-20.814-20.814V20.814A20.837,20.837,0,0,1,311.279,0H760.855A20.838,20.838,0,0,1,781.67,20.814V349.973A20.838,20.838,0,0,1,760.855,370.787ZM311.279,1.648a19.188,19.188,0,0,0-19.166,19.166V349.973a19.188,19.188,0,0,0,19.166,19.166H760.855a19.189,19.189,0,0,0,19.167-19.166V20.814A19.189,19.189,0,0,0,760.855,1.648Z" fill="#292a2e"></path>
      </g>
      <g>
        <rect x="313.4" y="33.258" width="44.348" height="44.348" rx="6.036" transform="translate(-3.734 31.927) rotate(-5.417)" fill="#292a2e"></rect>
        <g>
          <rect x="400.457" y="99.684" width="44.348" height="44.348" rx="6.036" transform="translate(15.462 -44.513) rotate(6.141)" fill="#fff"></rect>
          <path d="M436.963,146.666a7.261,7.261,0,0,1-.765-.041h0l-32.09-3.453a7.044,7.044,0,0,1-6.243-7.749l3.453-32.089a7.036,7.036,0,0,1,7.749-6.244l32.09,3.453a7.038,7.038,0,0,1,6.243,7.749l-3.453,32.089a7.037,7.037,0,0,1-6.983,6.285Zm-.552-2.03a5.036,5.036,0,0,0,5.546-4.468l3.454-32.09a5.038,5.038,0,0,0-4.469-5.547l-32.091-3.452a5.036,5.036,0,0,0-5.546,4.469l-3.453,32.089a5.044,5.044,0,0,0,4.47,5.547l32.089,3.452Z" fill="#292a2e"></path>
        </g>
        <g>
          <path d="M583.445,152.416a1,1,0,0,1-.831-.442c-20.362-30.286-51.25-35.8-73.584-35.1a140.543,140.543,0,0,0-44.159,8.906,1,1,0,0,1-.767-1.847,142.792,142.792,0,0,1,44.863-9.058c22.83-.718,54.434,4.938,75.307,35.982a1,1,0,0,1-.829,1.558Z" fill="#292a2e"></path>
          <path d="M583.815,152.825a1.027,1.027,0,0,1-.273-.038L563.052,147a1,1,0,0,1,.543-1.925l19.528,5.514,5.515-19.528a1,1,0,0,1,1.924.544l-5.786,20.49A1,1,0,0,1,583.815,152.825Z" fill="#292a2e"></path>
        </g>
        <rect x="579.805" y="163.22" width="44.348" height="44.348" rx="6.036" transform="translate(-14.813 57.657) rotate(-5.417)" fill="#367cff"></rect>
        <rect x="681.266" y="61.931" width="44.348" height="44.348" rx="6.036" transform="translate(6.846 -44.962) rotate(3.679)" fill="#292a2e"></rect>
        <rect x="698.574" y="166.273" width="44.348" height="44.348" rx="6.036" transform="translate(24.296 -76.024) rotate(6.141)" fill="#0cbc8b"></rect>
        <g>
          <rect x="526.862" y="274.085" width="44.348" height="44.348" rx="6.036" transform="translate(-25.516 53.154) rotate(-5.417)" fill="#fff"></rect>
          <path d="M534.49,320.885a7.046,7.046,0,0,1-7-6.372l-3.047-32.132a7.045,7.045,0,0,1,6.341-7.669l32.13-3.047a7.036,7.036,0,0,1,7.669,6.341l3.047,32.131a7.044,7.044,0,0,1-6.34,7.669h0l-32.13,3.047C534.934,320.874,534.71,320.885,534.49,320.885Zm29.1-47.252c-.16,0-.322.008-.483.023L530.972,276.7a5.043,5.043,0,0,0-4.54,5.49l3.047,32.131a5.047,5.047,0,0,0,5.49,4.538l32.131-3.047a5.043,5.043,0,0,0,4.539-5.49l-3.047-32.131a5.039,5.039,0,0,0-5.006-4.561Z" fill="#292a2e"></path>
        </g>
        <rect x="319.678" y="263.217" width="44.348" height="44.348" rx="6.036" transform="translate(-25.415 33.547) rotate(-5.417)" fill="#367cff"></rect>
        <g>
          <path d="M612.9,145.425a1.122,1.122,0,0,1-.115-.006,1,1,0,0,1-.879-1.108,94.9,94.9,0,0,1,9.244-28.985c10-19.383,25.682-30.5,45.34-32.156a1,1,0,0,1,.168,1.993c-45.849,3.856-52.7,58.822-52.766,59.377A1,1,0,0,1,612.9,145.425Z" fill="#292a2e"></path>
          <path d="M656.98,95.073a1,1,0,0,1-.709-1.706l9.24-9.281-9.28-9.24a1,1,0,1,1,1.411-1.417l9.988,9.946a1,1,0,0,1,0,1.414l-9.945,9.989A.994.994,0,0,1,656.98,95.073Z" fill="#292a2e"></path>
        </g>
        <g>
          <path d="M547.889,257.723a1,1,0,0,1-.956-.707c-.149-.489-14.531-49.055,22.7-69.2a1,1,0,1,1,.951,1.759c-35.779,19.357-21.88,66.378-21.736,66.851a1,1,0,0,1-.956,1.293Z" fill="#292a2e"></path>
          <path d="M565.83,201.156a1,1,0,0,1-.931-1.363l4.172-10.717L558.354,184.9a1,1,0,0,1,.724-1.864l11.65,4.534a1,1,0,0,1,.569,1.295l-4.535,11.649A1,1,0,0,1,565.83,201.156Z" fill="#292a2e"></path>
        </g>
        <g>
          <path d="M423.516,92.542h0a1,1,0,0,1-1-1c0-15.191-4.483-26.787-13.328-34.465-15.7-13.627-40.119-10.342-40.364-10.307a1,1,0,0,1-.283-1.98c1.035-.149,25.551-3.456,41.949,10.768,9.308,8.075,14.027,20.182,14.026,35.984A1,1,0,0,1,423.516,92.542Z" fill="#292a2e"></path>
          <path d="M423.564,92.9c-.031,0-.063,0-.094,0a1,1,0,0,1-.677-.358L413.8,81.683a1,1,0,0,1,1.541-1.276L423.7,90.5l10.088-8.352a1,1,0,1,1,1.275,1.541L424.2,92.674A1,1,0,0,1,423.564,92.9Z" fill="#292a2e"></path>
        </g>
        <rect x="407.362" y="202.858" width="44.348" height="44.348" rx="6.036" fill="#0cbc8b"></rect>
        <g>
          <path d="M527.876,261.844a1,1,0,0,1-.968-.757c-11.149-44.6-65.663-41.472-66.205-41.435a1,1,0,1,1-.135-2,91.3,91.3,0,0,1,29.679,3.906c14.272,4.459,32.554,14.852,38.6,39.039a1,1,0,0,1-.728,1.213A.968.968,0,0,1,527.876,261.844Z" fill="#292a2e"></path>
          <path d="M528.015,262.181a1,1,0,0,1-.579-.185l-11.317-8.031a1,1,0,1,1,1.159-1.63l10.489,7.444,7.477-10.842a1,1,0,0,1,1.646,1.136l-8.052,11.676a1,1,0,0,1-.649.417A1.022,1.022,0,0,1,528.015,262.181Z" fill="#292a2e"></path>
        </g>
      </g>
    </g>
    <g>
      <g>
        <polygon points="1019.636 905.254 1021.6 904.876 990.904 599.845 988.94 600.223 1019.636 905.254" fill="#494949"></polygon>
        <polygon points="905.338 905.254 907.302 904.876 876.607 599.845 874.643 600.223 905.338 905.254" fill="#494949"></polygon>
        <g>
          <polygon points="652.69 905.254 650.726 904.876 681.422 599.845 683.386 600.223 652.69 905.254" fill="#494949"></polygon>
          <polygon points="766.988 905.254 765.024 904.876 795.719 599.845 797.683 600.223 766.988 905.254" fill="#494949"></polygon>
        </g>
        <rect x="731.969" y="531.882" width="135.496" height="2" transform="translate(165.679 1255.036) rotate(-82.395)" fill="#494949"></rect>
        <rect x="937.793" y="531.882" width="135.496" height="2" transform="translate(344.262 1459.049) rotate(-82.395)" fill="#494949"></rect>
        <g>
          <rect x="780.1" y="590.199" width="220.99" height="19.671" rx="9.835" transform="translate(1781.19 1200.068) rotate(-180)" fill="#292a2e"></rect>
          <rect x="780.1" y="590.199" width="220.99" height="19.671" rx="9.835" transform="translate(1781.19 1200.068) rotate(-180)" fill="#fff" opacity="0.8"></rect>
          <path d="M779.1,600.034A10.847,10.847,0,0,1,789.935,589.2h201.32a10.835,10.835,0,0,1,0,21.67H789.935A10.848,10.848,0,0,1,779.1,600.034Zm10.835-8.835a8.835,8.835,0,1,0,0,17.67h201.32a8.835,8.835,0,0,0,0-17.67Z" fill="#292a2e"></path>
        </g>
        <g>
          <rect x="669.605" y="590.199" width="220.99" height="19.671" rx="9.835" transform="translate(1560.2 1200.068) rotate(-180)" fill="#fff"></rect>
          <path d="M668.6,600.034A10.848,10.848,0,0,1,679.44,589.2H880.76a10.835,10.835,0,0,1,0,21.67H679.44A10.849,10.849,0,0,1,668.6,600.034ZM679.44,591.2a8.835,8.835,0,1,0,0,17.67H880.76a8.835,8.835,0,0,0,0-17.67Z" fill="#292a2e"></path>
        </g>
        <g>
          <path d="M818.724,465.73h195.247a13.146,13.146,0,0,0,13.035-11.448L1039.92,355.1a13.144,13.144,0,0,0-13.034-14.842H831.639A13.145,13.145,0,0,0,818.6,351.708l-12.915,99.18A13.145,13.145,0,0,0,818.724,465.73Z" fill="#292a2e"></path>
          <path d="M818.724,465.73h195.247a13.146,13.146,0,0,0,13.035-11.448L1039.92,355.1a13.144,13.144,0,0,0-13.034-14.842H831.639A13.145,13.145,0,0,0,818.6,351.708l-12.915,99.18A13.145,13.145,0,0,0,818.724,465.73Z" fill="#fff" opacity="0.8"></path>
          <path d="M808.1,461.919a14.145,14.145,0,0,1-3.4-11.16l12.915-99.18a14.18,14.18,0,0,1,14.026-12.319h195.247a14.144,14.144,0,0,1,14.026,15.972L1028,454.411a14.18,14.18,0,0,1-14.026,12.319H818.724A14.148,14.148,0,0,1,808.1,461.919ZM831.639,341.26A12.175,12.175,0,0,0,819.6,351.837l-12.915,99.18a12.145,12.145,0,0,0,12.043,13.713h195.247a12.175,12.175,0,0,0,12.043-10.577l12.914-99.18a12.144,12.144,0,0,0-12.042-13.713Z" fill="#292a2e"></path>
        </g>
        <g>
          <path d="M807.683,465.73H1002.93a13.146,13.146,0,0,0,13.035-11.448L1028.88,355.1a13.145,13.145,0,0,0-13.035-14.842H820.6a13.144,13.144,0,0,0-13.034,11.447l-12.915,99.18A13.144,13.144,0,0,0,807.683,465.73Z" fill="#fff"></path>
          <path d="M797.055,461.919a14.149,14.149,0,0,1-3.4-11.16l12.915-99.18A14.181,14.181,0,0,1,820.6,339.26h195.247a14.144,14.144,0,0,1,14.026,15.972l-12.914,99.179a14.182,14.182,0,0,1-14.027,12.319H807.683A14.15,14.15,0,0,1,797.055,461.919ZM820.6,341.26a12.177,12.177,0,0,0-12.043,10.577l-12.915,99.18a12.145,12.145,0,0,0,12.043,13.713H1002.93a12.175,12.175,0,0,0,12.043-10.577l12.915-99.179a12.146,12.146,0,0,0-12.043-13.714Z" fill="#292a2e"></path>
        </g>
      </g>
      <g>
        <g>
          <path d="M660.119,852.415s-5.361,27.794-31.384,29.343-20.38,22.279-20.38,22.279H707.8V854.353Z" fill="#367cff"></path>
          <path d="M749.346,834.867s7.457,27.306-15.209,40.183-8.453,28.987-8.453,28.987l89.232-43.9L792.985,815.56Z" fill="#367cff"></path>
          <g>
            <path d="M804.614,827.154l-75.249-237.39h136.4c27.4,0,38.821-23.235,38.821-50.633s-26.935-51.416-54.333-51.416H666.162c-16.71,0-35.448,10.22-44.62,24.19s-6.693,35.618-.048,50.951l120.5,292.667" fill="#262626"></path>
            <path d="M804.614,827.154l-75.249-237.39h136.4c27.4,0,38.821-23.235,38.821-50.633s-26.935-51.416-54.333-51.416H666.162c-16.71,0-35.448,10.22-44.62,24.19s-6.693,35.618-.048,50.951l120.5,292.667" fill="#0a0a0a" opacity="0.8"></path>
            <path d="M715.574,872.339l23.8-282.575,165.209-.011c38.712-3.034,56.44-24.25,55.877-51.642-.557-27.045-14.25-53.757-41.174-53.757H696.62c-19.92.409-42.982,19.252-42.982,40.924L642.067,869.056" fill="#262626"></path>
            <path d="M971.732,484.685s7.337,47.846-4.293,74.447c-14.519,33.21-68.947,30.622-68.947,30.622l3.067-105.4Z" fill="#262626"></path>
          </g>
        </g>
        <g>
          <path d="M979.818,479.277l.212.012S979.877,475.213,979.818,479.277Z" fill="#333"></path>
          <g>
            <path d="M979.552,479.277l.212.012S979.611,475.213,979.552,479.277Z" fill="#333"></path>
            <g>
              <path d="M625.367,285.3a4.17,4.17,0,0,1,4.261-2.256.375.375,0,0,1,.048-.219.368.368,0,0,1,.342-.139l-2.89-2.072A4.338,4.338,0,0,1,625.7,275.1a4.178,4.178,0,0,1,5.282-1.869c-.007-.041.02-.08.026-.122l-1.187-.851a4.282,4.282,0,0,1-1.506-5.2,4.185,4.185,0,0,1,6.251-1.681l2.741,1.964c.008-.016,0-.035.011-.05s.04-.021.056-.037a4.179,4.179,0,0,1-.276-5.206c1.294-2.081,4.28-1.656,6.052-.386l16.131,11.142L656.4,267.94a4.341,4.341,0,0,1,1.148-5.813,4.181,4.181,0,0,1,5.92,1.34l15.743,26.5a13.894,13.894,0,0,1-4.513,18.834h0a21.053,21.053,0,0,1-23.53-.676l-24.36-17.46A4.478,4.478,0,0,1,625.367,285.3Z" fill="#E98862"></path>
              <g opacity="0.25">
                <path d="M653.27,278.343a.386.386,0,0,1-.532.09l-15.326-10.615a.386.386,0,0,1,.439-.635L653.178,277.8a.385.385,0,0,1,.1.537Z" fill="#0c0c0c"></path>
              </g>
              <g opacity="0.25">
                <path d="M648.775,285.232a.386.386,0,0,1-.532.09l-17.1-11.847a.387.387,0,0,1-.1-.537.4.4,0,0,1,.537-.1l17.105,11.847a.386.386,0,0,1,.1.537Z" fill="#0c0c0c"></path>
              </g>
              <g opacity="0.25">
                <path d="M643.949,292.721a.386.386,0,0,1-.532.09l-13.644-9.45a.386.386,0,0,1,.44-.634l13.644,9.45a.386.386,0,0,1,.1.537Z" fill="#0c0c0c"></path>
              </g>
            </g>
            <path d="M688.5,283.934l46.232,78.739,56.413-73.993,46.848,42.237L757.983,434.533l-.524.737a31.988,31.988,0,0,1-54.141-3.962L637.575,312.252Z" fill="#367cff"></path>
            <path d="M739.261,372.141a.587.587,0,0,0,.523-.854l-4.532-8.881a.588.588,0,0,0-1.047.534l4.533,8.881A.585.585,0,0,0,739.261,372.141Z" fill="#0c0c0c"></path>
            <rect x="793.927" y="362.238" width="1.174" height="24.909" transform="translate(-19.954 45.619) rotate(-3.248)" fill="#0c0c0c"></rect>
            <g>
              <g>
                <g>
                  <path d="M943.366,182.24s2.167,27.682,8.516,37.661c18.278,28.727,23.853,61.219,6.081,78.432S825.586,317.111,816.451,278.1c-7.691-32.847,7.955-36.569,11.457-63.78,1.585-12.311,6.037-38.141,6.037-38.141" fill="#0a0a0a"></path>
                  <path id="sk" d="M845.627,271.859c.2-.026,2.393,36.4,44.714,33.228,29.3-2.195,39.744-33.28,40.416-33.28-3.159-.671-8.478-1.647-9.881-2.4-4.614-2.479-10.322-5.058-11.809-14.017-.857-5.164.6-31.581.149-36.806l-44.972,10.038c.628,11.034,5.026,36.614-10.389,41.141C851.29,270.516,848.527,271.205,845.627,271.859Z" fill="#E98862"></path>
                  <path id="sh" d="M863.613,259.313a32.554,32.554,0,0,0,1.353-6.98,74.4,74.4,0,0,0-.294-16.234,49.305,49.305,0,0,0,24.856-10.89c.835,3.084,5.428,16.56,4.156,19.491C891.28,250.241,879.985,259.313,863.613,259.313Z" fill="#0c0c0c" opacity="0.52"></path>
                  <path d="M869.574,247.848c17.749,1.51,40.607-5.848,45.086-29.513l4.041-21.354c4.479-23.666-4.32-45.2-26.6-49.42h0c-22.282-4.217-42.568,11.816-47.047,35.482l-1.789,9.453C841.544,201.577,837.905,245.153,869.574,247.848Z" fill="#E98862"></path>
                  <circle cx="849.613" cy="190.734" r="2.793" fill="#0c0c0c"></circle>
                  <circle cx="878.229" cy="194.556" r="2.793" fill="#0c0c0c"></circle>
                  <path d="M862.525,215.034a.318.318,0,0,1-.043-.006,25.2,25.2,0,0,1-2.672-.681c-1.311-.421-3.027-1.119-2.8-2.3.254-1.348,6.7-15.2,7.436-16.773a.572.572,0,0,1,1.038.483c-2.75,5.9-7.178,15.6-7.349,16.5.147.421,2.322,1.22,4.562,1.645a.572.572,0,0,1-.169,1.131Z" fill="#0c0c0c"></path>
                  <path d="M865.825,225.252a23.4,23.4,0,0,1-10.139-3.852.572.572,0,0,1,.625-.959c6.559,4.274,13.078,4.965,18.849,2a3.388,3.388,0,0,1,.359-.171.572.572,0,0,1,.389,1.076c-.045.019-.121.059-.225.113A17.16,17.16,0,0,1,865.825,225.252Z" fill="#0c0c0c"></path>
                  <path d="M936.527,204.423l-19.975-3.662c-15.127-6.122-19.7-32.31-19.7-32.31s-18.375,17.91-62.9,7.724c0,0,8.929-62.1,74.715-44.044,21.212,5.823,36.436,27.2,34.54,55.768C941.871,207.92,936.527,204.423,936.527,204.423Z" fill="#0a0a0a"></path>
                  <path d="M911.912,225.283c6.771,1.281,13.631-4.924,14.913-11.7s-3.5-11.545-10.273-12.826l-4.348,3.877-6.114,19.543Z" fill="#E98862"></path>
                  <path d="M860.363,183.954a13.1,13.1,0,0,0-6.607-2.086,11.565,11.565,0,0,0-3.434.363,13.639,13.639,0,0,0-3.183,1.261.6.6,0,0,0,.52,1.076l.042-.019a12.367,12.367,0,0,1,2.921-1,10.123,10.123,0,0,1,3.045-.182,11.474,11.474,0,0,1,5.622,2.031l.054.039a.9.9,0,1,0,1.054-1.454Z" fill="#0c0c0c"></path>
                  <path d="M878.177,188.148a11.507,11.507,0,0,1,5.976.137,10.147,10.147,0,0,1,2.774,1.271,12.316,12.316,0,0,1,2.36,1.992l.032.032a.6.6,0,0,0,.874-.815,13.67,13.67,0,0,0-2.512-2.325,11.577,11.577,0,0,0-3.071-1.58,13.1,13.1,0,0,0-6.915-.441.9.9,0,0,0,.377,1.756l.037-.009Z" fill="#0c0c0c"></path>
                  <path d="M865.052,230.625a11.736,11.736,0,0,1-1.946-.391.572.572,0,0,1,.317-1.1c3.83,1.1,6.008-.358,6.1-.421a.572.572,0,0,1,.658.937A7.76,7.76,0,0,1,865.052,230.625Z" fill="#0c0c0c"></path>
                  <path d="M916.509,200.508l.2-.553c-25.308-9.085-19.119-33.921-19.054-34.171l-.568-.149C897.019,165.89,890.688,191.238,916.509,200.508Z" fill="#0c0c0c"></path>
                </g>
                <ellipse cx="880.902" cy="212.896" rx="3.903" ry="5.321" transform="translate(574.99 1065.967) rotate(-83.859)" fill="#0c0c0c" opacity="0.1"></ellipse>
                <path d="M849.556,208.578c-.237,2.14-2.791,3.621-5.713,3.31a7.288,7.288,0,0,1-1.486-.318c-.165-2.547-.2-5-.153-7.268a6.693,6.693,0,0,1,2.477-.174C847.6,204.438,849.784,206.43,849.556,208.578Z" fill="#0c0c0c" opacity="0.1"></path>
              </g>
              <path d="M793.046,352.06c1.333,15.661,7.817,113,9.1,132.294l169.586.36c1-17.4,12.526-93.472,16.31-127.494,3.612-32.464,10.7-48.718,5.5-58.316-8.488-15.686-31.682-24.75-47.5-26.892-9.657-1.307-24.183-2.244-24.183-2.244s-1.229,24.879-30.555,26.264c-39.921,1.883-37.255-26.264-37.453-26.264-6.467,0-43.412,4.093-52.451,9.451C776.775,293.8,790.216,318.873,793.046,352.06Z" fill="#367cff"></path>
              <path d="M682.968,363l16.347,79.453a7.2,7.2,0,0,0,6.991,5.749l112.561.958a7.2,7.2,0,0,0,7.114-8.651l-16.347-79.453a7.2,7.2,0,0,0-6.991-5.748l-112.561-.959A7.2,7.2,0,0,0,682.968,363Z" fill="#292a2e"></path>
              <g>
                <path d="M787.929,419.437a4.346,4.346,0,0,0,3.489,4.51l3.465.764a.4.4,0,0,0-.259.27.335.335,0,0,0,.047.211,4.164,4.164,0,0,0-3.03,3.759,4.475,4.475,0,0,0,3.418,4.37l29.26,6.5a20.813,20.813,0,0,0,4.558.5,21.057,21.057,0,0,0,17.349-9.127,13.882,13.882,0,0,0-3.242-19.088l-24.89-18.2a4.2,4.2,0,0,0-1.856-.764l2.29,11.124-.61-.141-.13-.023L798.7,400.22c-2.126-.47-5.039.3-5.415,2.725a4.2,4.2,0,0,0,2.3,4.687c-.012.011-.036.023-.036.047s.012.035.012.058l-3.3-.728A4.182,4.182,0,0,0,787.177,411a4.279,4.279,0,0,0,3.43,4.193l1.421.317c.012.047,0,.094.024.13A4.17,4.17,0,0,0,787.929,419.437Z" fill="#E98862"></path>
                <g opacity="0.25">
                  <path d="M814.566,411.593a.386.386,0,0,1-.453.292l-18.264-3.746a.386.386,0,1,1,.155-.756l18.264,3.746a.385.385,0,0,1,.3.455Z" fill="#0c0c0c"></path>
                </g>
                <g opacity="0.25">
                  <path d="M813.137,419.694a.387.387,0,0,1-.454.291l-20.383-4.18a.385.385,0,0,1-.3-.455.4.4,0,0,1,.456-.3l20.382,4.18a.387.387,0,0,1,.3.456Z" fill="#0c0c0c"></path>
                </g>
                <g opacity="0.25">
                  <path d="M811.639,428.476a.387.387,0,0,1-.454.292l-16.259-3.334a.386.386,0,0,1,.156-.756l16.258,3.334a.386.386,0,0,1,.3.455Z" fill="#0c0c0c"></path>
                </g>
              </g>
              <path id="b_4_b" d="M826.131,451.394l158.747,28.688a32.25,32.25,0,0,0,35.293-37.411l-22.224-132.1a32.25,32.25,0,1,0-63.606,10.7L949.5,412.21,833.11,397.593Z" fill="#367cff"></path>
              <g id="b_4_b-2" data-name="b_4_b">
                <path d="M984.879,480.67a.588.588,0,0,0,.1-1.166l-158.2-28.588,6.833-52.667,115.8,14.544a.58.58,0,0,0,.5-.176.588.588,0,0,0,.156-.5L940.441,354a.58.58,0,0,0-.675-.483.588.588,0,0,0-.483.676l9.5,57.34-115.6-14.517a.592.592,0,0,0-.656.507l-6.979,53.8a.588.588,0,0,0,.478.654L984.774,480.66A.622.622,0,0,0,984.879,480.67Z" fill="#0c0c0c"></path>
              </g>
              <rect x="954.013" y="407.859" width="1.176" height="10.341" transform="translate(395.873 1290.344) rotate(-80.905)" fill="#0c0c0c"></rect>
            </g>
          </g>
        </g>
      </g>
    </g>
    <g>
      <path d="M1091.122,904.662H.7a.7.7,0,1,1,0-1.4h1090.42a.7.7,0,0,1,0,1.4Z" fill="#292a2e"></path>
      <g opacity="0.65">
        <path d="M1091.122,904.662H.7a.7.7,0,1,1,0-1.4h1090.42a.7.7,0,0,1,0,1.4Z" fill="#292a2e"></path>
      </g>
    </g>
    <g>
      <g>
        <polygon points="67.755 905.254 65.791 904.876 96.487 599.845 98.451 600.223 67.755 905.254" fill="#494949"></polygon>
        <polygon points="182.053 905.254 180.089 904.876 210.784 599.845 212.748 600.223 182.053 905.254" fill="#494949"></polygon>
        <g>
          <polygon points="434.701 905.254 436.665 904.876 405.969 599.845 404.005 600.223 434.701 905.254" fill="#494949"></polygon>
          <polygon points="320.403 905.254 322.367 904.876 291.672 599.845 289.708 600.223 320.403 905.254" fill="#494949"></polygon>
        </g>
        <rect x="286.674" y="465.134" width="2" height="135.496" transform="translate(-67.997 42.762) rotate(-7.605)" fill="#494949"></rect>
        <rect x="80.85" y="465.134" width="2" height="135.496" transform="translate(-69.808 15.521) rotate(-7.605)" fill="#494949"></rect>
        <g>
          <rect x="86.301" y="590.199" width="220.99" height="19.671" rx="9.835" fill="#292a2e"></rect>
          <rect x="86.301" y="590.199" width="220.99" height="19.671" rx="9.835" fill="#fff" opacity="0.8"></rect>
          <path d="M297.456,610.869H96.136a10.835,10.835,0,1,1,0-21.67h201.32a10.835,10.835,0,0,1,0,21.67ZM96.136,591.2a8.835,8.835,0,1,0,0,17.67h201.32a8.835,8.835,0,0,0,0-17.67Z" fill="#292a2e"></path>
        </g>
        <g>
          <rect x="196.796" y="590.199" width="220.99" height="19.671" rx="9.835" fill="#fff"></rect>
          <path d="M407.951,610.869H206.631a10.835,10.835,0,1,1,0-21.67h201.32a10.835,10.835,0,1,1,0,21.67ZM206.631,591.2a8.835,8.835,0,1,0,0,17.67h201.32a8.835,8.835,0,1,0,0-17.67Z" fill="#292a2e"></path>
        </g>
        <g>
          <path d="M268.667,465.73H73.42a13.146,13.146,0,0,1-13.035-11.448L47.47,355.1a13.145,13.145,0,0,1,13.035-14.842H255.752a13.145,13.145,0,0,1,13.035,11.447l12.914,99.18A13.144,13.144,0,0,1,268.667,465.73Z" fill="#292a2e"></path>
          <path d="M268.667,465.73H73.42a13.146,13.146,0,0,1-13.035-11.448L47.47,355.1a13.145,13.145,0,0,1,13.035-14.842H255.752a13.145,13.145,0,0,1,13.035,11.447l12.914,99.18A13.144,13.144,0,0,1,268.667,465.73Z" fill="#fff" opacity="0.8"></path>
          <path d="M268.667,466.73H73.42a14.182,14.182,0,0,1-14.027-12.319L46.479,355.232A14.144,14.144,0,0,1,60.505,339.26H255.752a14.18,14.18,0,0,1,14.026,12.319l12.915,99.18a14.144,14.144,0,0,1-14.026,15.971ZM60.505,341.26a12.145,12.145,0,0,0-12.043,13.713l12.915,99.18A12.175,12.175,0,0,0,73.42,464.73H268.667a12.145,12.145,0,0,0,12.043-13.713L267.8,351.837a12.176,12.176,0,0,0-12.043-10.577Z" fill="#292a2e"></path>
        </g>
        <g>
          <path d="M279.707,465.73H84.46a13.145,13.145,0,0,1-13.034-11.448L58.511,355.1a13.145,13.145,0,0,1,13.035-14.842H266.793a13.144,13.144,0,0,1,13.034,11.447l12.915,99.18A13.145,13.145,0,0,1,279.707,465.73Z" fill="#fff"></path>
          <path d="M279.707,466.73H84.46a14.181,14.181,0,0,1-14.026-12.319L57.519,355.232A14.146,14.146,0,0,1,71.546,339.26H266.792a14.182,14.182,0,0,1,14.027,12.319l12.915,99.18a14.146,14.146,0,0,1-14.027,15.971ZM71.546,341.26A12.146,12.146,0,0,0,59.5,354.974l12.914,99.179A12.177,12.177,0,0,0,84.46,464.73H279.707a12.145,12.145,0,0,0,12.043-13.713l-12.915-99.18a12.175,12.175,0,0,0-12.043-10.577Z" fill="#292a2e"></path>
        </g>
      </g>
      <g>
        <g>
          <path d="M258.186,187.24s12.975-9.793,16.19-32.335c2.489-17.454-13.611-6.146-13.611-6.146s1.67-12.585-7.5-11.336-14.3,14.469-14.3,14.469" fill="#0c0c0c"></path>
          <path d="M205.875,138.9s-45.494,4.878-29.048,66.526l4.025.269,8.172.548" fill="#0c0c0c"></path>
          <path id="sk-2" data-name="sk" d="M250.566,269.8c-.2-.026-2.419,36.8-45.205,33.593-29.62-2.219-40.182-33.645-40.86-33.645,3.193-.679,7.14-1.709,8.708-2.063a17.28,17.28,0,0,0,13.22-14.532c.866-5.22-.6-31.928-.151-37.209L231.745,226.1c-.636,11.155-5.082,37.016,10.5,41.593C244.841,268.445,247.634,269.142,250.566,269.8Z" fill="#E98862"></path>
          <path id="sh-2" data-name="sh" d="M232.382,257.119a32.874,32.874,0,0,1-1.367-7.056,75.223,75.223,0,0,1,.3-16.413,49.853,49.853,0,0,1-25.129-11.009c-.845,3.118-5.488,16.741-4.2,19.705C204.411,247.947,215.83,257.119,232.382,257.119Z" fill="#0c0c0c" opacity="0.52"></path>
          <path d="M223,249.83c-17.937-1.608-39.406-12.942-39.716-37.29L183,190.57c-.31-24.349,12.228-44.25,35.153-44.541h0c22.925-.292,40.312,19.229,40.622,43.577l.123,9.727a73.47,73.47,0,0,1-.728,9.982c-1.176,8.75-3,22.053-8.938,31.053C243.628,248.864,234.458,250.858,223,249.83Z" fill="#E98862"></path>
          <path d="M231.32,227.574a23.648,23.648,0,0,0,10.771-2.057.578.578,0,1,0-.454-1.064c-7.281,3.1-13.892,2.65-19.118-1.314a3.915,3.915,0,0,0-.328-.234.579.579,0,0,0-.576,1c.042.027.11.08.2.152A17.335,17.335,0,0,0,231.32,227.574Z" fill="#0c0c0c"></path>
          <path d="M231.148,233.06a11.857,11.857,0,0,0,2.006-.048.579.579,0,0,0-.123-1.151c-4.006.426-5.919-1.41-6-1.488a.579.579,0,0,0-.82.817A7.849,7.849,0,0,0,231.148,233.06Z" fill="#0c0c0c"></path>
          <circle cx="251.207" cy="201.191" r="2.824" fill="#0c0c0c"></circle>
          <circle cx="223.618" cy="199.459" r="2.824" fill="#0c0c0c"></circle>
          <path d="M184.8,219.939c-6.966.089-12.709-7.293-12.8-14.259s5.511-10.881,12.478-10.97l3.649,4.623,2.661,20.53Z" fill="#E98862"></path>
          <g>
            <path d="M191.732,208.744s2.352-34.453,12.8-36.58c6.958-1.417,23.831,8.452,39.46,5.472,6.837-1.3,13.328.388,13.988,3.618.262,1.279,4.521-17.1-6.186-31.045-8.525-11.1-36.422-14.24-49.114-10.6-35.144,10.081-19.636,56.617-19.636,56.617l1.567,11.878Z" fill="#0c0c0c"></path>
            <path d="M235.532,219.444h.044c2.245-.023,6.009-.311,5.994-1.991-.015-1.391-3.976-16.375-4.428-18.079a.572.572,0,0,0-1.106.293c1.76,6.636,4.38,16.852,4.39,17.8-.217.4-2.536.811-4.86.835a.572.572,0,0,0-.034,1.143Z" fill="#0c0c0c"></path>
            <path d="M243.192,185.879a13.6,13.6,0,0,1,7.21,0,12.025,12.025,0,0,1,3.28,1.436,14.068,14.068,0,0,1,2.739,2.236.833.833,0,0,1-1.132,1.22l-.05-.044a12.286,12.286,0,0,0-2.5-1.789,10.033,10.033,0,0,0-2.837-1.035,11.352,11.352,0,0,0-5.877.328l-.079.028a1.251,1.251,0,1,1-.834-2.359C243.139,185.894,243.167,185.886,243.192,185.879Z" fill="#0c0c0c"></path>
            <path d="M226.484,187.3a11.333,11.333,0,0,0-5.781-1.109,10.013,10.013,0,0,0-2.949.648,12.283,12.283,0,0,0-2.713,1.441l-.054.035a.832.832,0,0,1-.961-1.358,14.05,14.05,0,0,1,3.013-1.852,12.018,12.018,0,0,1,3.442-.986,13.6,13.6,0,0,1,7.146.958,1.251,1.251,0,1,1-1,2.3c-.024-.01-.047-.021-.07-.033Z" fill="#0c0c0c"></path>
          </g>
          <ellipse cx="236.963" cy="148.416" rx="9.539" ry="14.04" transform="translate(-25.345 51.6) rotate(-11.801)" fill="#0c0c0c"></ellipse>
        </g>
        <g>
          <path d="M527.448,852.415s5.362,27.794,31.385,29.343,20.38,22.279,20.38,22.279H479.768V854.353Z" fill="#367cff"></path>
          <path d="M338.261,834.867S330.8,862.173,353.47,875.05s8.453,28.987,8.453,28.987l-89.232-43.9,21.931-44.581Z" fill="#367cff"></path>
          <g>
            <path d="M282.993,827.154l75.249-237.39h-136.4c-27.4,0-38.821-23.235-38.821-50.633s26.935-51.416,54.333-51.416H421.444c16.711,0,35.449,10.22,44.621,24.19s6.693,35.618.048,50.951l-120.5,292.667" fill="#262626"></path>
            <path d="M282.993,827.154l75.249-237.39h-136.4c-27.4,0-38.821-23.235-38.821-50.633s26.935-51.416,54.333-51.416H421.444c16.711,0,35.449,10.22,44.621,24.19s6.693,35.618.048,50.951l-120.5,292.667" fill="#0a0a0a" opacity="0.8"></path>
            <path d="M474.05,878.226,348.231,589.764l-165.209-.011c-38.712-3.034-56.44-24.25-55.877-51.642.556-27.045,14.25-53.757,41.174-53.757H390.987c19.92.409,35.592,22.423,42.982,40.924l104.6,335.288" fill="#262626"></path>
            <path d="M115.875,484.685s-7.337,47.846,4.293,74.447c14.519,33.21,68.947,30.622,68.947,30.622l-3.067-105.4Z" fill="#262626"></path>
          </g>
        </g>
        <path d="M438.7,483.744,322,459.561a29.53,29.53,0,0,1-21.617-18.437l-45.9-120.954A29.529,29.529,0,1,1,309.7,299.216l40.152,105.8,100.834,20.894S440.725,484.162,438.7,483.744Z" fill="#367cff"></path>
        <path d="M303.725,350.886c-1.348,15.832-10.9,114.61-12.2,134.111H115.951c-1.009-17.589-4.284-92.266-8.109-126.661-3.652-32.821-4.976-51.551-.77-61.751,7.418-17.989,25.981-24.462,41.97-26.627,9.764-1.322,24.449-2.27,24.449-2.27s1.243,25.153,30.891,26.553c40.36,1.9,37.665-26.553,37.864-26.553,6.539,0,42.129,4.755,51.028,10.556,12.569,8.192,16.284,19.357,16.431,29.614C309.874,319.668,305.256,332.929,303.725,350.886Z" fill="#367cff"></path>
        <path d="M296.822,431.6a.3.3,0,0,1-.042,0,.5.5,0,0,1-.457-.539l4.558-54.755a.487.487,0,0,1,.54-.456.5.5,0,0,1,.456.539l-4.557,54.755A.5.5,0,0,1,296.822,431.6Z" fill="#0c0c0c"></path>
        <g>
          <path d="M380.446,464.459l38.525-118.423a10.366,10.366,0,0,1,9.857-7.159H585.78a10.366,10.366,0,0,1,9.857,13.572L557.112,470.872a10.366,10.366,0,0,1-9.857,7.159H390.3A10.366,10.366,0,0,1,380.446,464.459Z" fill="#292a2e"></path>
          <path d="M380.446,464.459l38.525-118.423a10.366,10.366,0,0,1,9.857-7.159H585.78a10.366,10.366,0,0,1,9.857,13.572L557.112,470.872a10.366,10.366,0,0,1-9.857,7.159H390.3A10.366,10.366,0,0,1,380.446,464.459Z" fill="#292a2e"></path>
          <rect x="302.069" y="468.429" width="114.544" height="9.602" rx="4.74" fill="#292a2e"></rect>
          <rect x="302.069" y="468.429" width="114.544" height="9.602" rx="4.74" fill="#292a2e"></rect>
          <circle cx="488.041" cy="414.231" r="16.461" fill="#fff"></circle>
        </g>
        <g id="b_4_ha">
          <path d="M371.665,436.718l-26.222-9.19,3.765-.261a4.806,4.806,0,0,0,4.379-4.887,4.631,4.631,0,0,0-5.128-4.347l-46.39,4.929,1.2,14.908a23.323,23.323,0,0,0,16.27,20.375l20.089,6.258a4.745,4.745,0,0,0,5.609-2.134,4.63,4.63,0,0,0-.727-5.44.4.4,0,0,0,.08-.576l3.7,1.161a4.808,4.808,0,0,0,5.973-2.72,4.63,4.63,0,0,0-2-5.612.4.4,0,0,0,.114-.092l1.522.478a4.745,4.745,0,0,0,5.609-2.134,4.637,4.637,0,0,0-1.681-6.205.429.429,0,0,0,.015-.094l10.919,3.828a4.368,4.368,0,0,0,2.89-8.245Z" fill="#E98862"></path>
          <path id="b_4_ha_sh" d="M357.426,441.562a.429.429,0,0,1-.149-.026L346.714,437.7a.435.435,0,1,1,.3-.817l10.562,3.84a.435.435,0,0,1-.148.844Z" fill="#0a0a0a" opacity="0.2"></path>
          <path id="b_4_ha_sh-2" data-name="b_4_ha_sh" d="M352.086,449.242a.434.434,0,0,1-.145-.025l-8.326-2.954a.435.435,0,1,1,.291-.82l8.326,2.954a.435.435,0,0,1-.146.845Z" fill="#0a0a0a" opacity="0.2"></path>
          <path id="b_4_ha_sh-3" data-name="b_4_ha_sh" d="M344.247,457.034a.427.427,0,0,1-.156-.029l-3.9-1.487a.435.435,0,1,1,.31-.812l3.9,1.487a.435.435,0,0,1-.155.841Z" fill="#0a0a0a" opacity="0.2"></path>
        </g>
        <path d="M322.6,414.14l-110-.074L170.987,312.553l-62.078,26.1L160.83,459.132l.508,1.2a31.136,31.136,0,0,0,30.4,18.692l132.528-7.83Z" fill="#367cff"></path>
        <path d="M189.914,479.576a31.739,31.739,0,0,1-29.035-19.046l-.509-1.2L116.13,356.671l.918-.395,44.75,103.86a30.734,30.734,0,0,0,29.911,18.388l132.043-7.8-1.636-56.083-109.849-.073-32-78.053.925-.379,31.744,77.432,110.149.074,1.693,58.024-.485.028-132.527,7.83Q190.838,479.576,189.914,479.576Z" fill="#0c0c0c"></path>
      </g>
      <g>
        <rect x="870.08" y="486.654" width="2" height="419.473" transform="translate(-65.576 91.068) rotate(-5.768)" fill="#494949"></rect>
        <g>
          <g>
            <rect x="-162.272" y="695.39" width="419.473" height="2" transform="translate(-650.169 673.58) rotate(-84.228)" fill="#494949"></rect>
            <rect x="12.026" y="695.39" width="419.473" height="2" transform="translate(-493.4 846.994) rotate(-84.228)" fill="#494949"></rect>
          </g>
          <rect x="1044.378" y="486.654" width="2" height="419.473" transform="translate(-64.693 108.584) rotate(-5.768)" fill="#494949"></rect>
        </g>
        <g>
          <rect x="24.115" y="479.522" width="1047.391" height="16.387" rx="8.194" fill="#292a2e"></rect>
          <rect x="24.115" y="479.522" width="1047.391" height="16.387" rx="8.194" fill="#fff" opacity="0.8"></rect>
          <path d="M1063.313,496.909h-1031a9.194,9.194,0,1,1,0-18.387h1031a9.194,9.194,0,0,1,0,18.387Zm-1031-16.387a7.194,7.194,0,1,0,0,14.387h1031a7.194,7.194,0,0,0,0-14.387Z" fill="#292a2e"></path>
        </g>
        <g>
          <rect x="205.076" y="479.522" width="866.43" height="16.387" rx="8.194" fill="#fff"></rect>
          <path d="M1063.313,496.909H213.269a9.194,9.194,0,0,1,0-18.387h850.044a9.194,9.194,0,0,1,0,18.387ZM213.269,480.522a7.194,7.194,0,0,0,0,14.387h850.044a7.194,7.194,0,0,0,0-14.387Z" fill="#292a2e"></path>
        </g>
      </g>
    </g>
  </g>
</svg>